<svg xmlns="http://www.w3.org/2000/svg" viewBox="0 0 64 64" fill="none"><title>Messenger</title><defs><linearGradient id="g" x1="7" y1="4" x2="58" y2="60"><stop stop-color="#c545de"/><stop offset="1" stop-color="#b62b9f"/></linearGradient><linearGradient id="s" x1="10" y1="4" x2="34" y2="28"><stop stop-color="#FFFFFF" stop-opacity=".18"/><stop offset="1" stop-color="#FFFFFF" stop-opacity="0"/></linearGradient></defs><rect width="64" height="64" rx="18" fill="#270c23"/><rect x="3" y="3" width="58" height="58" rx="15" fill="url(#g)"/><path d="M7 10C17 -1 39 -1 57 10V3H7v7Z" fill="url(#s)"/><circle cx="51" cy="14" r="8" fill="#e677ee" fill-opacity=".22"/><circle cx="14" cy="53" r="10" fill="#041019" fill-opacity=".24"/><g fill="#F8FAFC" fill-opacity=".18"><path d="M41 44.5a3.5 3.5 0 0 1 3.5-3.5h8a3.5 3.5 0 0 1 3.5 3.5v4A3.5 3.5 0 0 1 52.5 52H49l-4 4v-4h-.5A3.5 3.5 0 0 1 41 48.5v-4Z"/></g><path d="M11 47h21" stroke="#FFFFFF" stroke-opacity=".18" stroke-width="4" stroke-linecap="round"/><text x="32" y="35" text-anchor="middle" font-family="Arial,sans-serif" font-size="18" font-weight="700" letter-spacing="1.2" fill="#F8FAFC">ME</text><rect x="3.5" y="3.5" width="57" height="57" rx="14.5" stroke="#FFFFFF" stroke-opacity=".12"/></svg>