<svg xmlns="http://www.w3.org/2000/svg" viewBox="0 0 64 64" fill="none"><title>O2</title><defs><linearGradient id="g" x1="7" y1="4" x2="58" y2="60"><stop stop-color="#eb8537"/><stop offset="1" stop-color="#ba951c"/></linearGradient><linearGradient id="s" x1="10" y1="4" x2="34" y2="28"><stop stop-color="#FFFFFF" stop-opacity=".18"/><stop offset="1" stop-color="#FFFFFF" stop-opacity="0"/></linearGradient></defs><rect width="64" height="64" rx="18" fill="#27200c"/><rect x="3" y="3" width="58" height="58" rx="15" fill="url(#g)"/><path d="M7 10C17 -1 39 -1 57 10V3H7v7Z" fill="url(#s)"/><circle cx="51" cy="14" r="8" fill="#f7b264" fill-opacity=".22"/><circle cx="14" cy="53" r="10" fill="#041019" fill-opacity=".24"/><g fill="#F8FAFC" fill-opacity=".18"><path d="M42 54c2.4-2.3 4.7-3.4 6.9-3.4S53.4 51.7 56 54M44 50c1.5-1.4 3.1-2.1 4.8-2.1 1.7 0 3.4.7 5.1 2.1M46.5 46.5c.7-.7 1.5-1 2.4-1s1.7.3 2.5 1" stroke="#F8FAFC" stroke-opacity=".18" stroke-width="2.2" stroke-linecap="round"/></g><path d="M11 47h21" stroke="#FFFFFF" stroke-opacity=".18" stroke-width="4" stroke-linecap="round"/><text x="32" y="35" text-anchor="middle" font-family="Arial,sans-serif" font-size="18" font-weight="700" letter-spacing="1.2" fill="#F8FAFC">O2</text><rect x="3.5" y="3.5" width="57" height="57" rx="14.5" stroke="#FFFFFF" stroke-opacity=".12"/></svg>