<svg xmlns="http://www.w3.org/2000/svg" viewBox="0 0 64 64" fill="none"><title>Rakuten</title><defs><linearGradient id="g" x1="7" y1="4" x2="58" y2="60"><stop stop-color="#e85990"/><stop offset="1" stop-color="#bc242c"/></linearGradient><linearGradient id="s" x1="10" y1="4" x2="34" y2="28"><stop stop-color="#FFFFFF" stop-opacity=".18"/><stop offset="1" stop-color="#FFFFFF" stop-opacity="0"/></linearGradient></defs><rect width="64" height="64" rx="18" fill="#270c0e"/><rect x="3" y="3" width="58" height="58" rx="15" fill="url(#g)"/><path d="M7 10C17 -1 39 -1 57 10V3H7v7Z" fill="url(#s)"/><circle cx="51" cy="14" r="8" fill="#f37297" fill-opacity=".22"/><circle cx="14" cy="53" r="10" fill="#041019" fill-opacity=".24"/><g fill="#F8FAFC" fill-opacity=".18"><path d="M42 46h14l-1.2 9.5a2 2 0 0 1-2 1.7h-7.6a2 2 0 0 1-2-1.7L42 46ZM46 46v-2.2c0-1.5 1.2-2.8 2.8-2.8h.4c1.6 0 2.8 1.3 2.8 2.8V46" stroke="#F8FAFC" stroke-opacity=".18" stroke-width="2" stroke-linecap="round" stroke-linejoin="round"/></g><path d="M11 47h21" stroke="#FFFFFF" stroke-opacity=".18" stroke-width="4" stroke-linecap="round"/><text x="32" y="35" text-anchor="middle" font-family="Arial,sans-serif" font-size="18" font-weight="700" letter-spacing="1.2" fill="#F8FAFC">RA</text><rect x="3.5" y="3.5" width="57" height="57" rx="14.5" stroke="#FFFFFF" stroke-opacity=".12"/></svg>