<svg xmlns="http://www.w3.org/2000/svg" viewBox="0 0 64 64" fill="none"><title>Setapp</title><defs><linearGradient id="g" x1="7" y1="4" x2="58" y2="60"><stop stop-color="#25c1b6"/><stop offset="1" stop-color="#257693"/></linearGradient><linearGradient id="s" x1="10" y1="4" x2="34" y2="28"><stop stop-color="#FFFFFF" stop-opacity=".18"/><stop offset="1" stop-color="#FFFFFF" stop-opacity="0"/></linearGradient></defs><rect width="64" height="64" rx="18" fill="#0c2127"/><rect x="3" y="3" width="58" height="58" rx="15" fill="url(#g)"/><path d="M7 10C17 -1 39 -1 57 10V3H7v7Z" fill="url(#s)"/><circle cx="51" cy="14" r="8" fill="#54e3e8" fill-opacity=".22"/><circle cx="14" cy="53" r="10" fill="#041019" fill-opacity=".24"/><g fill="#F8FAFC" fill-opacity=".18"><path d="M48 42 56 45v5.5c0 4-2.6 6.4-8 8.5-5.4-2.1-8-4.5-8-8.5V45l8-3Z"/></g><path d="M11 47h21" stroke="#FFFFFF" stroke-opacity=".18" stroke-width="4" stroke-linecap="round"/><text x="32" y="35" text-anchor="middle" font-family="Arial,sans-serif" font-size="18" font-weight="700" letter-spacing="1.2" fill="#F8FAFC">SE</text><rect x="3.5" y="3.5" width="57" height="57" rx="14.5" stroke="#FFFFFF" stroke-opacity=".12"/></svg>